<svg width="500" height="500" viewBox="0 0 500 500" fill="none" xmlns="http://www.w3.org/2000/svg">
<g clip-path="url(#clip0_15_48)">
<path d="M500 250C500 111.929 388.071 0 250 0C111.929 0 0 111.929 0 250C0 388.071 111.929 500 250 500C388.071 500 500 388.071 500 250Z" fill="#F71735"/>
<path d="M263.844 228.809C262.015 229.299 260.93 231.179 261.42 233.008L289.742 338.71C290.244 340.583 291.35 342.021 293.058 343.024C294.767 344.026 296.545 344.28 298.393 343.785L350.289 329.879C352.136 329.384 353.549 328.276 354.528 326.553C355.506 324.83 355.744 323.032 355.242 321.159L343.055 275.674C342.565 273.845 343.65 271.965 345.479 271.475L359.802 267.638C375.086 263.542 387.806 257.943 397.963 250.841C408.243 243.523 415.303 234.603 419.144 224.081C422.76 214.284 423.15 203.073 420.313 190.446C419.897 188.594 418.006 187.502 416.172 187.993L357.196 203.796C355.406 204.275 354.366 206.089 354.519 207.936C354.772 210.982 354.221 213.521 352.867 215.553C350.895 218.272 348.566 219.992 345.878 220.712L331.556 224.55C329.726 225.04 327.846 223.954 327.356 222.125L325.66 215.795C325.17 213.966 323.29 212.881 321.461 213.371L263.844 228.809Z" fill="#07020D" fill-opacity="0.6"/>
<path d="M139.68 378.483C153.339 380.042 168.182 378.675 184.209 374.38C200.07 370.131 213.441 363.938 224.324 355.803C235.206 347.668 242.697 337.561 246.798 325.484C250.898 313.407 250.834 299.476 246.604 283.692L234.926 240.107C234.436 238.278 232.556 237.193 230.727 237.683L174.744 252.683C172.915 253.174 171.829 255.054 172.319 256.883L183.728 299.459C185.393 305.672 185.089 310.883 182.817 315.092C180.712 319.255 176.57 322.164 170.393 323.82C164.216 325.475 159.092 325.048 155.02 322.54C151.115 319.987 148.33 315.603 146.665 309.39L135.257 266.814C134.766 264.985 132.886 263.899 131.057 264.389L75.0748 279.39C73.2458 279.88 72.1603 281.76 72.6504 283.589L84.3288 327.173C88.5582 342.958 95.4678 355.054 105.057 363.463C114.647 371.872 126.188 376.879 139.68 378.483Z" fill="#07020D" fill-opacity="0.6"/>
<path d="M364.269 184.153C363.672 184.313 363.099 184.236 362.55 183.924C362.001 183.611 361.647 183.16 361.489 182.57L347.568 130.613C347.41 130.024 347.49 129.456 347.809 128.911C348.129 128.366 348.587 128.013 349.184 127.853L372.625 121.572C377.726 120.205 382.514 119.842 386.989 120.482C391.45 121.068 395.312 122.676 398.576 125.307C401.895 127.924 404.282 131.623 405.737 136.405C406.464 138.682 407.064 140.705 407.538 142.474C407.998 144.19 408.468 146.162 408.948 148.389C410.082 153.487 409.954 158.004 408.566 161.939C407.164 165.82 404.697 169.096 401.167 171.766C397.677 174.368 393.327 176.367 388.118 177.763L364.269 184.153ZM378.218 163.606L383.508 162.188C384.702 161.868 385.703 161.37 386.51 160.694C387.358 159.95 387.951 159.015 388.289 157.89C388.627 156.765 388.622 155.444 388.274 153.929C387.966 152.345 387.647 150.936 387.316 149.703C387.04 148.455 386.71 147.222 386.325 146.003C385.98 144.716 385.56 143.363 385.063 141.945C384.351 139.722 383.18 138.283 381.551 137.628C379.976 136.958 378.266 136.87 376.421 137.364L371.537 138.673L378.218 163.606Z" fill="#07020D" fill-opacity="0.6"/>
<path d="M307.901 199.257C307.322 199.412 306.765 199.331 306.23 199.015C305.695 198.698 305.348 198.245 305.19 197.655L291.268 145.699C291.11 145.109 291.184 144.543 291.489 144.002C291.795 143.46 292.237 143.112 292.815 142.957L305.274 139.619C306.325 139.337 307.152 139.374 307.754 139.73C308.357 140.086 308.773 140.376 309.002 140.602L328.298 159.31L322.414 137.353C322.256 136.764 322.33 136.198 322.636 135.656C322.941 135.115 323.383 134.766 323.961 134.611L338.233 130.787C338.812 130.632 339.368 130.713 339.904 131.029C340.439 131.345 340.786 131.798 340.944 132.388L354.866 184.345C355.024 184.935 354.95 185.5 354.645 186.042C354.339 186.584 353.897 186.932 353.319 187.087L340.86 190.425C339.809 190.707 338.982 190.67 338.38 190.314C337.763 189.904 337.347 189.614 337.132 189.441L318.311 172.503L323.72 192.69C323.878 193.28 323.804 193.846 323.498 194.388C323.193 194.929 322.751 195.277 322.173 195.432L307.901 199.257Z" fill="#07020D" fill-opacity="0.6"/>
<path d="M269.424 209.566C264.191 210.969 259.352 211.444 254.907 210.992C250.517 210.525 246.772 208.979 243.673 206.353C240.574 203.727 238.358 199.93 237.027 194.96L228.337 162.529C228.181 161.947 228.264 161.386 228.587 160.847C228.91 160.307 229.371 159.957 229.971 159.796L245.998 155.502C246.598 155.341 247.172 155.414 247.722 155.72C248.271 156.026 248.624 156.469 248.78 157.051L257.385 189.166C257.909 191.121 258.803 192.497 260.068 193.291C261.387 194.071 263.055 194.19 265.072 193.65C267.089 193.109 268.446 192.179 269.144 190.859C269.897 189.524 270.011 187.879 269.487 185.923L260.882 153.808C260.726 153.227 260.809 152.666 261.132 152.126C261.455 151.586 261.916 151.236 262.516 151.076L278.543 146.781C279.143 146.62 279.717 146.693 280.267 146.999C280.816 147.305 281.169 147.749 281.325 148.33L290.015 180.762C291.346 185.731 291.326 190.128 289.955 193.951C288.584 197.775 286.114 200.986 282.546 203.586C278.977 206.185 274.603 208.179 269.424 209.566Z" fill="#07020D" fill-opacity="0.6"/>
<path d="M211.35 225.127C206.513 226.423 202.059 226.779 197.988 226.193C193.966 225.595 190.474 224.016 187.514 221.457C184.589 218.833 182.406 215.227 180.966 210.64C180.344 208.516 179.711 206.255 179.069 203.857C178.426 201.46 177.829 199.133 177.278 196.878C176.246 192.238 176.341 188.05 177.562 184.315C178.783 180.58 180.996 177.389 184.201 174.742C187.407 172.095 191.428 170.124 196.264 168.828C201.101 167.532 205.569 167.228 209.669 167.918C213.768 168.607 217.28 170.264 220.205 172.889C223.179 175.5 225.355 179.079 226.732 183.627C227.432 185.842 228.103 188.149 228.745 190.547C229.388 192.945 229.946 195.226 230.42 197.389C231.466 202.082 231.353 206.302 230.083 210.051C228.848 213.734 226.614 216.847 223.381 219.389C220.197 221.919 216.187 223.831 211.35 225.127ZM207.264 209.879C208.893 209.443 210.068 208.597 210.79 207.342C211.498 206.035 211.583 204.28 211.046 202.078C210.544 199.81 209.999 197.581 209.413 195.392C208.826 193.202 208.197 191.052 207.526 188.941C207.085 187.495 206.492 186.369 205.747 185.562C205.052 184.743 204.253 184.231 203.352 184.025C202.436 183.768 201.436 183.784 200.35 184.075C199.314 184.353 198.439 184.839 197.725 185.533C197.047 186.162 196.587 187.011 196.345 188.082C196.152 189.139 196.227 190.404 196.569 191.877C197.092 194.028 197.647 196.198 198.234 198.387C198.82 200.576 199.439 202.785 200.089 205.014C200.774 207.177 201.725 208.654 202.942 209.445C204.195 210.171 205.635 210.316 207.264 209.879Z" fill="#07020D" fill-opacity="0.6"/>
<path d="M132.322 246.303C131.759 246.454 131.215 246.369 130.691 246.05C130.166 245.731 129.825 245.276 129.667 244.687L115.746 192.73C115.587 192.14 115.656 191.576 115.95 191.037C116.245 190.499 116.674 190.154 117.237 190.003L139.963 183.913C147.334 181.938 153.56 182.138 158.639 184.512C163.719 186.887 167.071 191.103 168.695 197.162C169.657 200.755 169.704 204.104 168.836 207.21C168.004 210.249 166.601 212.895 164.626 215.148L178.984 230.955C179.224 231.236 179.379 231.51 179.451 231.778C179.58 232.261 179.516 232.738 179.259 233.209C179.038 233.613 178.697 233.877 178.236 234L162.496 238.218C161.473 238.492 160.633 238.429 159.978 238.03C159.322 237.631 158.867 237.265 158.613 236.931L147.894 223.338L144.746 224.182L148.862 239.543C149.02 240.133 148.952 240.697 148.657 241.236C148.363 241.775 147.934 242.12 147.371 242.27L132.322 246.303ZM140.651 208.9L146.256 207.398C147.433 207.083 148.196 206.448 148.543 205.493C148.928 204.47 148.976 203.423 148.689 202.35C148.402 201.278 147.854 200.361 147.047 199.601C146.276 198.773 145.251 198.53 143.972 198.873L138.367 200.375L140.651 208.9Z" fill="#07020D" fill-opacity="0.6"/>
<path d="M93.5869 256.682C88.3554 258.084 83.6137 258.516 79.3617 257.979C75.1098 257.442 71.47 255.875 68.4425 253.278C65.415 250.681 63.1481 246.987 61.6419 242.194C61.0174 240.071 60.37 237.758 59.6995 235.256C59.029 232.754 58.4194 230.375 57.8706 228.119C56.8346 223.424 56.9993 219.274 58.3646 215.667C59.7677 211.995 62.2091 208.882 65.6888 206.33C69.1545 203.725 73.4254 201.742 78.5015 200.382C82.5934 199.286 86.3967 198.769 89.9113 198.833C93.4119 198.845 96.5442 199.347 99.308 200.338C102.072 201.33 104.362 202.728 106.177 204.532C107.979 206.284 109.22 208.326 109.901 210.658C110.026 211.127 109.957 211.593 109.692 212.055C109.465 212.451 109.119 212.711 108.652 212.836L91.4819 217.437C90.9121 217.59 90.425 217.636 90.0205 217.577C89.6678 217.504 89.3271 217.372 88.9983 217.181C88.7212 216.975 88.3127 216.694 87.7726 216.336C87.2703 215.912 86.6077 215.614 85.7848 215.444C84.9479 215.221 83.882 215.283 82.5871 215.63C80.6706 216.143 79.353 217.027 78.6343 218.281C77.9016 219.483 77.7488 221.089 78.176 223.098C79.1799 227.466 80.3672 231.897 81.7378 236.39C82.47 238.709 83.5196 240.243 84.8867 240.994C86.2538 241.745 87.8956 241.864 89.812 241.351C91.107 241.004 92.1976 240.516 93.084 239.887C93.9703 239.259 94.5866 238.451 94.9329 237.464C95.2792 236.478 95.2777 235.333 94.9285 234.029L94.9076 233.951L91.2559 234.93C90.6861 235.082 90.1382 235.006 89.6121 234.7C89.086 234.394 88.7461 233.954 88.5924 233.38L86.2668 224.701C86.1131 224.128 86.1876 223.577 86.4902 223.049C86.7929 222.521 87.2291 222.18 87.7988 222.028L109.165 216.303C109.735 216.15 110.283 216.227 110.809 216.533C111.335 216.839 111.675 217.278 111.828 217.852L114.552 228.017C115.809 232.709 115.724 236.95 114.297 240.74C112.87 244.531 110.36 247.801 106.767 250.552C103.212 253.237 98.8184 255.28 93.5869 256.682Z" fill="#07020D" fill-opacity="0.6"/>
<path d="M261.049 218.377C259.22 218.867 258.134 220.747 258.625 222.576L286.947 328.278C287.449 330.151 288.554 331.589 290.263 332.592C291.972 333.594 293.75 333.848 295.597 333.353L347.494 319.447C349.341 318.952 350.754 317.844 351.733 316.121C352.711 314.398 352.949 312.6 352.447 310.727L340.26 265.242C339.77 263.413 340.855 261.533 342.684 261.043L357.007 257.206C372.29 253.11 385.011 247.511 395.168 240.409C405.448 233.091 412.508 224.171 416.349 213.649C419.965 203.852 420.355 192.641 417.518 180.014C417.102 178.162 415.211 177.07 413.377 177.561L354.401 193.364C352.611 193.843 351.571 195.657 351.724 197.504C351.977 200.55 351.426 203.089 350.071 205.121C348.1 207.84 345.77 209.56 343.083 210.28L328.76 214.118C326.931 214.608 325.051 213.522 324.561 211.693L322.865 205.363C322.375 203.534 320.495 202.449 318.666 202.939L261.049 218.377Z" fill="#E8E9F3"/>
<path d="M136.885 368.051C150.544 369.61 165.387 368.243 181.414 363.948C197.274 359.699 210.646 353.506 221.528 345.371C232.411 337.236 239.902 327.129 244.003 315.052C248.103 302.975 248.038 289.044 243.809 273.26L232.131 229.675C231.64 227.846 229.76 226.761 227.931 227.251L171.949 242.251C170.12 242.742 169.034 244.622 169.524 246.451L180.933 289.027C182.597 295.24 182.294 300.451 180.022 304.66C177.916 308.823 173.775 311.732 167.598 313.388C161.421 315.043 156.296 314.616 152.224 312.108C148.319 309.555 145.535 305.171 143.87 298.958L132.461 256.382C131.971 254.552 130.091 253.467 128.262 253.957L72.2793 268.958C70.4503 269.448 69.3649 271.328 69.8549 273.157L81.5334 316.741C85.7628 332.526 92.6723 344.622 102.262 353.031C111.852 361.44 123.392 366.447 136.885 368.051Z" fill="#E8E9F3"/>
<path d="M361.474 173.721C360.877 173.881 360.304 173.804 359.755 173.492C359.206 173.179 358.852 172.728 358.694 172.138L344.773 120.181C344.615 119.592 344.695 119.024 345.014 118.479C345.333 117.934 345.791 117.581 346.388 117.421L369.83 111.14C374.931 109.773 379.719 109.41 384.194 110.05C388.655 110.636 392.517 112.244 395.781 114.875C399.099 117.492 401.486 121.191 402.942 125.973C403.669 128.25 404.269 130.273 404.743 132.042C405.203 133.758 405.673 135.73 406.153 137.957C407.287 143.055 407.159 147.572 405.771 151.507C404.368 155.388 401.902 158.664 398.372 161.334C394.881 163.936 390.532 165.935 385.322 167.33L361.474 173.721ZM375.422 153.174L380.713 151.756C381.907 151.436 382.908 150.938 383.715 150.262C384.563 149.518 385.155 148.583 385.494 147.458C385.832 146.333 385.827 145.012 385.479 143.497C385.171 141.913 384.852 140.504 384.521 139.271C384.245 138.023 383.915 136.79 383.53 135.571C383.185 134.284 382.764 132.931 382.268 131.513C381.556 129.29 380.385 127.851 378.756 127.196C377.18 126.526 375.47 126.438 373.625 126.932L368.742 128.241L375.422 153.174Z" fill="#E8E9F3"/>
<path d="M305.105 188.825C304.527 188.98 303.97 188.899 303.435 188.583C302.899 188.266 302.553 187.813 302.395 187.223L288.473 135.267C288.315 134.677 288.389 134.111 288.694 133.57C289 133.028 289.442 132.68 290.02 132.525L302.478 129.187C303.53 128.905 304.357 128.942 304.959 129.298C305.561 129.654 305.977 129.944 306.207 130.17L325.502 148.878L319.619 126.921C319.461 126.332 319.535 125.766 319.84 125.224C320.146 124.683 320.588 124.334 321.166 124.179L335.438 120.355C336.016 120.2 336.573 120.281 337.109 120.597C337.644 120.913 337.991 121.366 338.149 121.956L352.071 173.913C352.229 174.503 352.155 175.068 351.849 175.61C351.544 176.152 351.102 176.5 350.524 176.655L338.065 179.993C337.014 180.275 336.187 180.238 335.585 179.882C334.968 179.472 334.552 179.182 334.337 179.009L315.515 162.071L320.925 182.258C321.083 182.848 321.009 183.414 320.703 183.956C320.398 184.497 319.956 184.845 319.377 185L305.105 188.825Z" fill="#E8E9F3"/>
<path d="M266.629 199.134C261.396 200.537 256.557 201.012 252.112 200.56C247.721 200.093 243.977 198.547 240.878 195.921C237.778 193.295 235.563 189.498 234.232 184.528L225.542 152.097C225.386 151.515 225.469 150.954 225.792 150.415C226.115 149.875 226.576 149.525 227.176 149.364L243.203 145.07C243.803 144.909 244.377 144.982 244.927 145.288C245.476 145.594 245.829 146.037 245.984 146.619L254.589 178.733C255.114 180.689 256.008 182.065 257.272 182.859C258.592 183.639 260.26 183.758 262.277 183.218C264.294 182.677 265.651 181.747 266.349 180.427C267.102 179.092 267.216 177.447 266.692 175.491L258.087 143.376C257.931 142.795 258.014 142.234 258.337 141.694C258.66 141.154 259.121 140.804 259.721 140.644L275.748 136.349C276.348 136.188 276.922 136.261 277.472 136.567C278.021 136.873 278.374 137.317 278.529 137.898L287.22 170.33C288.551 175.299 288.531 179.696 287.16 183.519C285.789 187.343 283.319 190.554 279.75 193.154C276.182 195.753 271.808 197.747 266.629 199.134Z" fill="#E8E9F3"/>
<path d="M208.555 214.695C203.718 215.991 199.264 216.347 195.192 215.761C191.17 215.163 187.679 213.584 184.719 211.025C181.794 208.401 179.611 204.795 178.171 200.208C177.549 198.084 176.916 195.823 176.274 193.425C175.631 191.027 175.034 188.701 174.483 186.446C173.451 181.806 173.546 177.618 174.767 173.883C175.988 170.148 178.201 166.957 181.406 164.31C184.611 161.663 188.632 159.692 193.469 158.396C198.306 157.1 202.774 156.796 206.873 157.486C210.973 158.175 214.485 159.832 217.41 162.457C220.384 165.068 222.56 168.647 223.937 173.195C224.636 175.41 225.307 177.717 225.95 180.115C226.592 182.513 227.151 184.794 227.625 186.957C228.67 191.65 228.558 195.87 227.288 199.619C226.053 203.302 223.819 206.415 220.586 208.957C217.402 211.487 213.392 213.399 208.555 214.695ZM204.469 199.447C206.098 199.011 207.273 198.165 207.995 196.91C208.702 195.603 208.788 193.848 208.25 191.646C207.748 189.378 207.204 187.149 206.618 184.96C206.031 182.77 205.402 180.62 204.73 178.509C204.29 177.063 203.697 175.937 202.952 175.13C202.257 174.311 201.458 173.799 200.557 173.593C199.641 173.336 198.641 173.352 197.555 173.643C196.518 173.921 195.644 174.407 194.93 175.101C194.252 175.73 193.792 176.579 193.55 177.65C193.357 178.707 193.432 179.972 193.774 181.445C194.297 183.596 194.852 185.766 195.439 187.955C196.025 190.144 196.643 192.353 197.293 194.582C197.979 196.745 198.93 198.222 200.147 199.013C201.4 199.739 202.84 199.884 204.469 199.447Z" fill="#E8E9F3"/>
<path d="M129.527 235.871C128.964 236.022 128.42 235.937 127.896 235.618C127.371 235.299 127.03 234.844 126.872 234.255L112.95 182.298C112.792 181.708 112.861 181.144 113.155 180.605C113.45 180.067 113.878 179.722 114.442 179.571L137.168 173.481C144.539 171.506 150.764 171.706 155.844 174.08C160.924 176.455 164.276 180.671 165.899 186.73C166.862 190.323 166.909 193.672 166.041 196.778C165.209 199.817 163.806 202.463 161.831 204.716L176.189 220.523C176.428 220.804 176.584 221.078 176.656 221.346C176.785 221.829 176.721 222.306 176.463 222.777C176.242 223.181 175.902 223.445 175.441 223.568L159.701 227.786C158.678 228.06 157.838 227.997 157.182 227.598C156.527 227.199 156.072 226.833 155.818 226.499L145.099 212.906L141.951 213.75L146.067 229.111C146.225 229.701 146.157 230.265 145.862 230.804C145.568 231.343 145.139 231.688 144.576 231.838L129.527 235.871ZM137.856 198.468L143.461 196.966C144.638 196.651 145.401 196.016 145.748 195.061C146.133 194.038 146.181 192.991 145.894 191.918C145.606 190.846 145.059 189.929 144.252 189.169C143.481 188.341 142.456 188.098 141.177 188.441L135.572 189.943L137.856 198.468Z" fill="#E8E9F3"/>
<path d="M90.7915 246.25C85.5601 247.652 80.8184 248.084 76.5664 247.547C72.3144 247.01 68.6746 245.443 65.6471 242.846C62.6196 240.249 60.3528 236.555 58.8466 231.762C58.2221 229.639 57.5746 227.326 56.9041 224.824C56.2337 222.322 55.624 219.943 55.0752 217.687C54.0392 212.992 54.2039 208.842 55.5692 205.235C56.9724 201.563 59.4138 198.45 62.8934 195.897C66.3591 193.293 70.63 191.31 75.7061 189.95C79.798 188.854 83.6013 188.337 87.1159 188.401C90.6165 188.413 93.7488 188.915 96.5126 189.906C99.2765 190.898 101.566 192.296 103.382 194.1C105.184 195.852 106.425 197.894 107.106 200.226C107.231 200.695 107.162 201.161 106.897 201.623C106.67 202.019 106.323 202.279 105.857 202.404L88.6865 207.005C88.1168 207.158 87.6296 207.204 87.2252 207.145C86.8725 207.072 86.5317 206.94 86.2029 206.749C85.9259 206.543 85.5173 206.262 84.9772 205.904C84.475 205.48 83.8124 205.182 82.9895 205.012C82.1526 204.789 81.0866 204.851 79.7917 205.198C77.8753 205.711 76.5577 206.595 75.8389 207.849C75.1062 209.051 74.9534 210.657 75.3806 212.665C76.3846 217.034 77.5719 221.465 78.9425 225.958C79.6746 228.277 80.7242 229.811 82.0913 230.562C83.4584 231.313 85.1002 231.432 87.0167 230.919C88.3116 230.572 89.4022 230.084 90.2886 229.455C91.1749 228.827 91.7913 228.019 92.1375 227.032C92.4838 226.046 92.4824 224.901 92.1332 223.597L92.1122 223.519L88.4605 224.498C87.8908 224.65 87.3428 224.574 86.8167 224.268C86.2906 223.962 85.9507 223.522 85.7971 222.948L83.4714 214.269C83.3178 213.696 83.3922 213.145 83.6949 212.617C83.9975 212.089 84.4337 211.748 85.0035 211.596L106.37 205.871C106.939 205.718 107.487 205.795 108.013 206.101C108.54 206.407 108.879 206.846 109.033 207.42L111.757 217.585C113.014 222.277 112.929 226.518 111.502 230.308C110.075 234.099 107.565 237.369 103.972 240.12C100.416 242.805 96.023 244.848 90.7915 246.25Z" fill="#E8E9F3"/>
</g>
<defs>
<clipPath id="clip0_15_48">
<rect width="500" height="500" fill="white"/>
</clipPath>
</defs>
</svg>
